# Blender 3.6.5
# www.blender.org
mtllib 4 way intersection.mtl
o Plane
v -0.500000 0.017689 -0.301849
v -0.500000 0.017689 -0.500000
v -0.500000 0.000000 -0.500000
v 0.500000 0.000000 -0.500000
v -0.500000 0.000000 -0.016077
v 0.500000 0.000000 -0.016077
v 0.500000 0.017689 -0.500000
v 0.500000 0.017689 -0.301849
v 0.500000 0.000000 -0.301849
v -0.500000 0.000000 -0.301849
v 0.301251 0.017689 -0.301849
v 0.311234 0.000000 -0.500000
v 0.311234 0.000000 -0.016077
v 0.301251 0.017689 -0.500000
v 0.311234 0.000000 -0.301849
v -0.302160 0.017689 -0.301849
v -0.315467 0.000000 -0.500000
v -0.315467 0.000000 -0.016077
v -0.302160 0.017689 -0.500000
v -0.315467 0.000000 -0.301849
v 0.311234 0.000000 -0.499972
v -0.315467 0.000000 -0.499972
v 0.301251 0.000311 -0.301849
v 0.301251 0.000311 -0.500000
v -0.302160 0.000311 -0.301849
v -0.302160 0.000311 -0.500000
v -0.500000 0.017689 0.301849
v -0.500000 0.017689 0.500000
v -0.500000 0.000000 0.500000
v 0.500000 0.000000 0.500000
v -0.500000 0.000000 0.016077
v 0.500000 0.000000 0.016077
v 0.500000 0.017689 0.500000
v 0.500000 0.017689 0.301849
v 0.500000 0.000000 0.301849
v -0.500000 0.000000 0.301849
v 0.301251 0.017689 0.301849
v 0.311234 0.000000 0.500000
v 0.311234 0.000000 0.016077
v 0.301251 0.017689 0.500000
v 0.311234 0.000000 0.301849
v -0.302160 0.017689 0.301849
v -0.315467 0.000000 0.500000
v -0.315467 0.000000 0.016077
v -0.302160 0.017689 0.500000
v -0.315467 0.000000 0.301849
v 0.311234 0.000000 0.499972
v -0.315467 0.000000 0.499972
v 0.301251 0.000311 0.301849
v 0.301251 0.000311 0.500000
v -0.302160 0.000311 0.301849
v -0.302160 0.000311 0.500000
vn 1.0000 -0.0000 -0.0000
vn -0.0000 1.0000 -0.0000
vn -1.0000 -0.0000 -0.0000
vn -0.0000 -0.0000 -1.0000
vn -0.0000 -0.0000 1.0000
vt 0.000000 0.000000
vt 0.815714 0.840355
vt 1.000000 0.840355
vt 1.000000 1.000000
vt 0.815714 1.000000
vt 0.815714 0.532468
vt 1.000000 0.532468
vt 0.163621 0.532468
vt 0.163621 0.840355
vt 0.163621 1.000000
vt 0.000000 0.840355
vt 0.000000 1.000000
vt 0.000000 0.532468
s 0
usemtl Asphalt
f 13/6/2 6/7/2 9/3/2 15/2/2
f 18/8/2 13/6/2 15/2/2 20/9/2
f 5/13/2 18/8/2 20/9/2 10/11/2
f 20/9/2 15/2/2 21/2/2 22/9/2
f 39/6/2 41/2/2 35/3/2 32/7/2
f 44/8/2 46/9/2 41/2/2 39/6/2
f 31/13/2 36/11/2 46/9/2 44/8/2
f 46/9/2 48/9/2 47/2/2 41/2/2
usemtl Sidewalk
f 9/1/1 4/1/1 7/1/1 8/1/1
f 11/2/2 8/3/2 7/4/2 14/5/2
f 3/1/3 10/1/3 1/1/3 2/1/3
f 17/1/4 3/1/4 2/1/4 19/1/4
f 15/2/5 9/3/5 8/3/5 11/2/5
f 11/2/3 14/5/3 24/5/3 23/2/3
f 4/1/4 12/1/4 14/1/4 7/1/4
f 19/10/1 16/9/1 25/9/1 26/10/1
f 1/11/2 16/9/2 19/10/2 2/12/2
f 10/11/5 20/9/5 16/9/5 1/11/5
f 35/1/1 34/1/1 33/1/1 30/1/1
f 37/2/2 40/5/2 33/4/2 34/3/2
f 29/1/3 28/1/3 27/1/3 36/1/3
f 43/1/5 45/1/5 28/1/5 29/1/5
f 41/2/4 37/2/4 34/3/4 35/3/4
f 37/2/3 49/2/3 50/5/3 40/5/3
f 30/1/5 33/1/5 40/1/5 38/1/5
f 45/10/1 52/10/1 51/9/1 42/9/1
f 27/11/2 28/12/2 45/10/2 42/9/2
f 36/11/4 27/11/4 42/9/4 46/9/4
o Plane.002
v -0.500000 0.000000 -0.016234
v 0.500000 0.000000 -0.016234
v -0.500000 0.000000 0.014966
v 0.500000 0.000000 0.014966
v -0.401579 0.000000 0.014966
v -0.401581 0.000000 -0.016234
v 0.418534 0.000000 -0.016234
v 0.418533 0.000000 0.014966
v -0.139019 0.000000 -0.016234
v -0.139019 0.000000 0.014966
v 0.135628 0.000000 0.014966
v 0.135628 0.000000 -0.016234
v -0.016284 0.000000 -0.401493
v 0.014916 0.000000 -0.401493
v 0.014916 0.000000 -0.499914
v -0.016284 0.000000 -0.499912
v -0.016284 0.000000 0.499139
v 0.014916 0.000000 0.499139
v 0.014916 0.000000 0.400717
v -0.016284 0.000000 0.400719
vn -0.0000 1.0000 -0.0000
vt 0.000000 0.476120
vt 0.147368 0.476120
vt 0.147367 0.532468
vt 0.000000 0.532468
vt 0.360981 0.476120
vt 0.360981 0.532468
vt 0.869587 0.532468
vt 0.869586 0.476120
vt 1.000000 0.476120
vt 1.000000 0.532468
vt 0.635628 0.476120
vt 0.635628 0.532468
s 0
usemtl Asphalt
f 58/16/6 57/15/6 62/18/6 61/19/6
f 61/19/6 62/18/6 63/24/6 64/25/6
f 64/25/6 63/24/6 60/21/6 59/20/6
usemtl Road_side
f 55/14/6 57/15/6 58/16/6 53/17/6
f 59/20/6 60/21/6 56/22/6 54/23/6
f 66/14/6 67/15/6 68/16/6 65/17/6
f 70/14/6 71/15/6 72/16/6 69/17/6
o Plane.003
v -0.500000 0.000000 -0.182834
v 0.500000 0.000000 -0.182834
v -0.500000 0.000000 -0.151634
v 0.500000 0.000000 -0.151634
v -0.401579 0.000000 -0.151634
v -0.401581 0.000000 -0.182834
v 0.418534 0.000000 -0.182834
v 0.418533 0.000000 -0.151634
v -0.182846 0.000000 -0.499912
v -0.151647 0.000000 -0.499914
v -0.151647 0.000000 -0.401493
v -0.182846 0.000000 -0.401493
v -0.182846 0.000000 0.400719
v -0.151647 0.000000 0.400717
v -0.151647 0.000000 0.499138
v -0.182846 0.000000 0.499138
vn -0.0000 1.0000 -0.0000
vt 0.000000 0.476120
vt 0.147368 0.476120
vt 0.147367 0.532468
vt 0.000000 0.532468
vt 0.869587 0.532468
vt 0.869586 0.476120
vt 1.000000 0.476120
vt 1.000000 0.532468
s 0
usemtl Road_side
f 75/26/7 77/27/7 78/28/7 73/29/7
f 79/30/7 80/31/7 76/32/7 74/33/7
f 83/26/7 82/27/7 81/28/7 84/29/7
f 87/26/7 86/27/7 85/28/7 88/29/7
o Plane.004
v -0.500000 0.000000 0.150426
v 0.500000 0.000000 0.150426
v -0.500000 0.000000 0.181626
v 0.500000 0.000000 0.181626
v -0.401579 0.000000 0.181626
v -0.401581 0.000000 0.150426
v 0.418534 0.000000 0.150426
v 0.418533 0.000000 0.181626
v 0.150406 0.000000 -0.499912
v 0.181605 0.000000 -0.499914
v 0.181605 0.000000 -0.401493
v 0.150406 0.000000 -0.401493
v 0.150406 0.000000 0.400719
v 0.181605 0.000000 0.400717
v 0.181605 0.000000 0.499139
v 0.150406 0.000000 0.499139
vn -0.0000 1.0000 -0.0000
vt 0.000000 0.476120
vt 0.147368 0.476120
vt 0.147367 0.532468
vt 0.000000 0.532468
vt 0.869587 0.532468
vt 0.869586 0.476120
vt 1.000000 0.476120
vt 1.000000 0.532468
s 0
usemtl Road_side
f 91/34/8 93/35/8 94/36/8 89/37/8
f 95/38/8 96/39/8 92/40/8 90/41/8
f 99/34/8 98/35/8 97/36/8 100/37/8
f 103/34/8 102/35/8 101/36/8 104/37/8
