# Blender 3.6.5
# www.blender.org
mtllib bend.mtl
o Plane
v -0.500000 0.017689 -0.301849
v -0.500000 0.017689 -0.500000
v -0.500000 0.000000 -0.500000
v 0.500000 0.000000 -0.500000
v -0.500000 0.000000 -0.016077
v 0.500000 0.000000 -0.016077
v 0.500000 0.017689 -0.500000
v 0.500000 0.017689 -0.301849
v 0.500000 0.000000 -0.301849
v -0.500000 0.000000 -0.301849
v 0.301251 0.017689 -0.301849
v 0.311234 0.000000 -0.500000
v 0.311234 0.000000 -0.016077
v 0.301251 0.017689 -0.500000
v 0.300133 0.000000 -0.301849
v -0.302160 0.017689 -0.301849
v -0.315467 0.000000 -0.500000
v -0.315467 0.000000 -0.016077
v -0.302160 0.017689 -0.500000
v -0.301394 0.000000 -0.301849
v 0.311234 0.000000 -0.499972
v -0.315467 0.000000 -0.499972
v 0.301251 0.000311 -0.301849
v 0.301251 0.000311 -0.500000
v -0.302160 0.000311 -0.301849
v -0.302160 0.000311 -0.500000
v -0.500000 0.017689 0.301849
v -0.500000 0.017689 0.500000
v -0.500000 0.000000 0.500000
v 0.500000 0.000000 0.500000
v -0.500000 0.000000 0.016077
v 0.500000 0.000000 0.016077
v 0.500000 0.017689 0.500000
v 0.500000 0.017689 0.301849
v 0.500000 0.000000 0.301849
v -0.500000 0.000000 0.301849
v 0.301251 0.017689 0.301849
v 0.311234 0.000000 0.500000
v 0.311234 0.000000 0.016077
v 0.301251 0.017689 0.500000
v 0.300133 0.000000 0.301849
v -0.302160 0.017689 0.301849
v -0.315467 0.000000 0.500000
v -0.315467 0.000000 0.016077
v -0.302160 0.017689 0.500000
v -0.301394 0.000000 0.301849
v 0.311234 0.000000 0.499972
v -0.315467 0.000000 0.499972
v 0.301251 0.000311 0.301849
v 0.301251 0.000311 0.500000
v -0.302160 0.000311 0.301849
v -0.302160 0.000311 0.500000
v -0.307687 0.017689 -0.301849
v -0.307687 0.017689 -0.500000
v -0.307687 0.000311 -0.301849
v -0.307687 0.000311 -0.500000
v 0.500000 0.017689 0.313728
v 0.500000 0.000000 0.313728
v 0.301251 0.017689 0.313728
v 0.300133 0.000000 0.313728
vn 1.0000 -0.0000 -0.0000
vn -0.0000 1.0000 -0.0000
vn -1.0000 -0.0000 -0.0000
vn -0.0000 -0.0000 -1.0000
vn -0.0000 -1.0000 -0.0000
vn -0.0000 -0.0000 1.0000
vn -0.9980 0.0631 -0.0000
vt 0.000000 0.000000
vt 0.815714 0.840355
vt 1.000000 0.840355
vt 1.000000 1.000000
vt 0.815714 1.000000
vt 0.815714 0.532468
vt 1.000000 0.532468
vt 0.163621 0.532468
vt 0.163621 0.840355
vt 0.163621 1.000000
vt 0.000000 0.840355
vt 0.000000 1.000000
vt 0.000000 0.532468
s 0
usemtl Asphalt
f 13/6/2 6/7/2 9/3/2 15/2/2
f 15/2/5 9/3/5 58/3/5 60/2/5
f 23/1/6 11/1/6 53/1/6 55/1/6
f 18/8/2 13/6/2 15/2/2 20/9/2
f 5/13/2 18/8/2 20/9/2 10/11/2
f 20/9/2 15/2/2 21/2/2 22/9/2
f 39/6/2 41/2/2 35/3/2 32/7/2
f 44/8/2 46/9/2 41/2/2 39/6/2
f 31/13/2 36/11/2 46/9/2 44/8/2
f 46/9/2 48/9/2 47/2/2 41/2/2
f 24/1/5 23/1/5 55/1/5 56/1/5
f 14/1/4 24/1/4 56/1/4 54/1/4
f 11/1/7 15/1/7 60/1/7 59/1/7
usemtl Sidewalk
f 9/1/1 4/1/1 7/1/1 8/1/1
f 11/2/2 8/3/2 7/4/2 14/5/2
f 3/1/3 10/1/3 1/1/3 2/1/3
f 17/1/4 3/1/4 2/1/4 19/1/4
f 4/1/4 12/1/4 14/1/4 7/1/4
f 19/10/1 16/9/1 25/9/1 26/10/1
f 1/11/2 16/9/2 19/10/2 2/12/2
f 10/11/6 20/9/6 16/9/6 1/11/6
f 35/1/1 34/1/1 33/1/1 30/1/1
f 37/2/2 40/5/2 33/4/2 34/3/2
f 29/1/3 28/1/3 27/1/3 36/1/3
f 43/1/6 45/1/6 28/1/6 29/1/6
f 41/2/4 37/2/4 34/3/4 35/3/4
f 37/2/3 49/2/3 50/5/3 40/5/3
f 30/1/6 33/1/6 40/1/6 38/1/6
f 45/10/1 52/10/1 51/9/1 42/9/1
f 27/11/2 28/12/2 45/10/2 42/9/2
f 36/11/4 27/11/4 42/9/4 46/9/4
f 53/2/3 54/5/3 56/5/3 55/2/3
f 11/2/2 14/5/2 54/5/2 53/2/2
f 60/2/6 58/3/6 57/3/6 59/2/6
f 8/3/2 11/2/2 59/2/2 57/3/2
f 9/1/1 8/1/1 57/1/1 58/1/1
o Plane.002
v -0.500000 0.000000 -0.016234
v 0.015656 0.000000 0.499308
v -0.500000 0.000000 0.014966
v -0.015543 0.000000 0.499308
v -0.401579 0.000000 0.014966
v -0.401581 0.000000 -0.016234
v 0.418534 0.000000 -0.016234
v 0.418533 0.000000 0.014966
v -0.139019 0.000000 -0.016234
v -0.139019 0.000000 0.014966
v 0.135628 0.000000 0.014966
v 0.135628 0.000000 -0.016234
v 0.015656 0.000000 -0.419226
v -0.015543 0.000000 -0.419227
v -0.015543 0.000000 0.400888
v 0.015656 0.000000 0.400887
v -0.015543 0.000000 -0.136321
v 0.015656 0.000000 -0.136320
v 0.015656 0.000000 0.138327
v -0.015543 0.000000 0.138326
v 0.014425 0.000000 -0.016234
v 0.014425 0.000000 0.014966
v 0.017071 0.000000 -0.016234
v 0.017070 0.000000 0.014966
v 0.015656 0.000000 -0.016880
v -0.015543 0.000000 -0.016881
vn -0.0000 1.0000 -0.0000
vt 0.000000 0.476120
vt 0.147368 0.476120
vt 0.147367 0.532468
vt 0.000000 0.532468
vt 0.360981 0.476120
vt 0.360981 0.532468
vt 0.517071 0.532468
vt 0.517070 0.476120
vt 0.635628 0.476120
vt 0.635628 0.532468
vt 0.869586 0.476120
vt 0.869587 0.532468
vt 0.516188 0.532468
vt 0.516188 0.476120
vt 0.514425 0.476120
vt 0.514425 0.532468
s 0
usemtl Asphalt
f 66/16/8 65/15/8 70/18/8 69/19/8
f 83/20/8 84/21/8 71/22/8 72/23/8
f 72/23/8 71/22/8 68/24/8 67/25/8
f 75/16/8 76/15/8 79/18/8 80/19/8
f 86/26/8 85/27/8 78/22/8 77/23/8
f 77/23/8 78/22/8 73/24/8 74/25/8
usemtl Road_side
f 63/14/8 65/15/8 66/16/8 61/17/8
f 62/14/8 76/15/8 75/16/8 64/17/8
f 69/19/8 70/18/8 82/28/8 81/29/8
f 81/29/8 82/28/8 84/21/8 83/20/8
f 80/19/8 79/18/8 85/27/8 86/26/8
